<svg width="512" height="512" viewBox="0 0 512 512" xmlns="http://www.w3.org/2000/svg">
  <rect width="512" height="512" rx="61" fill="#0F1012"/>
  <!-- Signal arcs (dashed, faint) -->
  <g stroke="#C49A4A" stroke-width="1.8" stroke-linecap="round" fill="none" opacity="0.3" stroke-dasharray="10 13">
    <line x1="275" y1="179" x2="226" y2="167"/>
    <line x1="345" y1="346" x2="338" y2="298"/>
    <line x1="146" y1="293" x2="179" y2="265"/>
  </g>
  <!-- Primary connections (bezier curves) -->
  <g stroke="#FAF6F1" stroke-width="3.5" stroke-linecap="round" fill="none" opacity="0.7">
    <path d="M 185 138 Q 275 165 397 229"/>
    <path d="M 397 229 Q 370 350 234 411"/>
    <path d="M 234 411 Q 130 310 185 138"/>
  </g>
  <!-- Satellite nodes -->
  <circle cx="275" cy="179" r="12" fill="#C49A4A" opacity="0.6"/>
  <circle cx="345" cy="346" r="14" fill="#C49A4A" opacity="0.6"/>
  <circle cx="146" cy="293" r="10" fill="#C49A4A" opacity="0.6"/>
  <!-- Primary node: terracotta (top-left) -->
  <circle cx="185" cy="138" r="27" fill="#B45A2D"/>
  <circle cx="178" cy="131" r="8" fill="#FAF6F1" opacity="0.25"/>
  <!-- Primary node: teal (right) -->
  <circle cx="397" cy="229" r="33" fill="#2D5F6B"/>
  <circle cx="389" cy="221" r="10" fill="#FAF6F1" opacity="0.25"/>
  <!-- Primary node: gold (bottom) -->
  <circle cx="234" cy="411" r="25" fill="#C49A4A"/>
  <circle cx="228" cy="405" r="7" fill="#FAF6F1" opacity="0.25"/>
  <!-- Center crosshair -->
  <g stroke="#FAF6F1" stroke-width="1.5" stroke-linecap="round" opacity="0.2">
    <line x1="243" y1="256" x2="269" y2="256"/>
    <line x1="256" y1="243" x2="256" y2="269"/>
  </g>
</svg>
