<svg width="512" height="512" viewBox="0 0 512 512" xmlns="http://www.w3.org/2000/svg">
  <rect width="512" height="512" rx="61" fill="#0F1012"/>
  <!-- Signal arcs (dashed, boosted) -->
  <g stroke="#C49A4A" stroke-width="2.5" stroke-linecap="round" fill="none" opacity="0.4" stroke-dasharray="8 10">
    <line x1="275" y1="179" x2="226" y2="167"/>
    <line x1="345" y1="346" x2="338" y2="298"/>
    <line x1="146" y1="293" x2="179" y2="265"/>
  </g>
  <!-- Primary connections (bezier curves, boosted) -->
  <g stroke="#FAF6F1" stroke-width="5" stroke-linecap="round" fill="none" opacity="0.85">
    <path d="M 185 138 Q 275 165 397 229"/>
    <path d="M 397 229 Q 370 350 234 411"/>
    <path d="M 234 411 Q 130 310 185 138"/>
  </g>
  <!-- Satellite nodes (boosted) -->
  <circle cx="275" cy="179" r="14" fill="#C49A4A" opacity="0.8"/>
  <circle cx="345" cy="346" r="16" fill="#C49A4A" opacity="0.8"/>
  <circle cx="146" cy="293" r="12" fill="#C49A4A" opacity="0.8"/>
  <!-- Primary node: terracotta (top-left, larger) -->
  <circle cx="185" cy="138" r="32" fill="#B45A2D"/>
  <circle cx="177" cy="130" r="9" fill="#FAF6F1" opacity="0.3"/>
  <!-- Primary node: teal (right, larger) -->
  <circle cx="397" cy="229" r="38" fill="#2D5F6B"/>
  <circle cx="388" cy="220" r="11" fill="#FAF6F1" opacity="0.3"/>
  <!-- Primary node: gold (bottom, larger) -->
  <circle cx="234" cy="411" r="30" fill="#C49A4A"/>
  <circle cx="227" cy="404" r="8" fill="#FAF6F1" opacity="0.3"/>
  <!-- Center crosshair -->
  <g stroke="#FAF6F1" stroke-width="2" stroke-linecap="round" opacity="0.25">
    <line x1="243" y1="256" x2="269" y2="256"/>
    <line x1="256" y1="243" x2="256" y2="269"/>
  </g>
</svg>
