<svg width="512" height="512" viewBox="0 0 512 512" xmlns="http://www.w3.org/2000/svg">
  <rect width="512" height="512" rx="61" fill="#0F1012"/>
  <!-- Grid: 18 cols x 16 rows, cell ~25.6 x 27.4 -->
  <!-- T: terracotta #B45A2D, G: teal #2D5F6B, BG: cream #FAF6F1 at 10% -->
  <style>
    .t { fill: #B45A2D; font-family: 'Courier New', monospace; font-size: 13px; opacity: 0.95; }
    .g { fill: #2D5F6B; font-family: 'Courier New', monospace; font-size: 13px; opacity: 0.95; }
    .bg { fill: #FAF6F1; font-family: 'Courier New', monospace; font-size: 11px; opacity: 0.1; }
  </style>
  <g text-anchor="middle" dominant-baseline="central">
    <!-- Row 0 -->
    <text class="bg" x="63" y="44">0</text><text class="t" x="90" y="44">1</text><text class="t" x="117" y="44">0</text><text class="t" x="144" y="44">1</text><text class="t" x="170" y="44">1</text><text class="t" x="197" y="44">0</text><text class="t" x="224" y="44">1</text><text class="t" x="251" y="44">0</text><text class="bg" x="278" y="44">1</text><text class="bg" x="304" y="44">0</text><text class="bg" x="331" y="44">1</text><text class="bg" x="358" y="44">0</text><text class="g" x="385" y="44">1</text><text class="g" x="411" y="44">0</text><text class="g" x="438" y="44">1</text><text class="g" x="465" y="44">0</text><text class="bg" x="492" y="44">1</text><text class="bg" x="519" y="44">0</text>
    <!-- Row 1 -->
    <text class="bg" x="63" y="71">1</text><text class="t" x="90" y="71">0</text><text class="t" x="117" y="71">1</text><text class="t" x="144" y="71">0</text><text class="t" x="170" y="71">1</text><text class="t" x="197" y="71">0</text><text class="t" x="224" y="71">1</text><text class="t" x="251" y="71">0</text><text class="bg" x="278" y="71">0</text><text class="bg" x="304" y="71">1</text><text class="bg" x="331" y="71">0</text><text class="g" x="358" y="71">1</text><text class="g" x="385" y="71">0</text><text class="g" x="411" y="71">1</text><text class="g" x="438" y="71">0</text><text class="g" x="465" y="71">1</text><text class="g" x="492" y="71">0</text><text class="bg" x="519" y="71">1</text>
    <!-- Row 2 -->
    <text class="bg" x="63" y="99">0</text><text class="bg" x="90" y="99">1</text><text class="bg" x="117" y="99">0</text><text class="t" x="144" y="99">1</text><text class="t" x="170" y="99">0</text><text class="t" x="197" y="99">1</text><text class="bg" x="224" y="99">0</text><text class="bg" x="251" y="99">1</text><text class="bg" x="278" y="99">0</text><text class="bg" x="304" y="99">1</text><text class="g" x="331" y="99">0</text><text class="g" x="358" y="99">1</text><text class="bg" x="385" y="99">0</text><text class="bg" x="411" y="99">1</text><text class="bg" x="438" y="99">0</text><text class="bg" x="465" y="99">1</text><text class="g" x="492" y="99">0</text><text class="bg" x="519" y="99">1</text>
    <!-- Row 3 -->
    <text class="bg" x="63" y="126">1</text><text class="bg" x="90" y="126">0</text><text class="bg" x="117" y="126">1</text><text class="t" x="144" y="126">0</text><text class="t" x="170" y="126">1</text><text class="t" x="197" y="126">0</text><text class="bg" x="224" y="126">1</text><text class="bg" x="251" y="126">0</text><text class="bg" x="278" y="126">1</text><text class="bg" x="304" y="126">0</text><text class="g" x="331" y="126">1</text><text class="bg" x="358" y="126">0</text><text class="bg" x="385" y="126">1</text><text class="bg" x="411" y="126">0</text><text class="bg" x="438" y="126">1</text><text class="bg" x="465" y="126">0</text><text class="bg" x="492" y="126">1</text><text class="bg" x="519" y="126">0</text>
    <!-- Row 4 -->
    <text class="bg" x="63" y="153">0</text><text class="bg" x="90" y="153">1</text><text class="bg" x="117" y="153">0</text><text class="t" x="144" y="153">1</text><text class="t" x="170" y="153">0</text><text class="t" x="197" y="153">1</text><text class="bg" x="224" y="153">0</text><text class="bg" x="251" y="153">1</text><text class="bg" x="278" y="153">0</text><text class="g" x="304" y="153">1</text><text class="g" x="331" y="153">0</text><text class="bg" x="358" y="153">1</text><text class="bg" x="385" y="153">0</text><text class="bg" x="411" y="153">1</text><text class="bg" x="438" y="153">0</text><text class="bg" x="465" y="153">1</text><text class="bg" x="492" y="153">0</text><text class="bg" x="519" y="153">1</text>
    <!-- Row 5 -->
    <text class="bg" x="63" y="181">1</text><text class="bg" x="90" y="181">0</text><text class="bg" x="117" y="181">1</text><text class="t" x="144" y="181">0</text><text class="t" x="170" y="181">1</text><text class="t" x="197" y="181">0</text><text class="bg" x="224" y="181">1</text><text class="bg" x="251" y="181">0</text><text class="bg" x="278" y="181">1</text><text class="g" x="304" y="181">0</text><text class="g" x="331" y="181">1</text><text class="bg" x="358" y="181">0</text><text class="bg" x="385" y="181">1</text><text class="bg" x="411" y="181">0</text><text class="bg" x="438" y="181">1</text><text class="bg" x="465" y="181">0</text><text class="bg" x="492" y="181">1</text><text class="bg" x="519" y="181">0</text>
    <!-- Row 6 -->
    <text class="bg" x="63" y="208">0</text><text class="bg" x="90" y="208">1</text><text class="bg" x="117" y="208">0</text><text class="t" x="144" y="208">1</text><text class="t" x="170" y="208">0</text><text class="t" x="197" y="208">1</text><text class="bg" x="224" y="208">0</text><text class="bg" x="251" y="208">1</text><text class="bg" x="278" y="208">0</text><text class="g" x="304" y="208">1</text><text class="g" x="331" y="208">0</text><text class="bg" x="358" y="208">1</text><text class="bg" x="385" y="208">0</text><text class="bg" x="411" y="208">1</text><text class="bg" x="438" y="208">0</text><text class="bg" x="465" y="208">1</text><text class="bg" x="492" y="208">0</text><text class="bg" x="519" y="208">1</text>
    <!-- Row 7 -->
    <text class="bg" x="63" y="235">1</text><text class="bg" x="90" y="235">0</text><text class="bg" x="117" y="235">1</text><text class="t" x="144" y="235">0</text><text class="t" x="170" y="235">1</text><text class="t" x="197" y="235">0</text><text class="bg" x="224" y="235">1</text><text class="bg" x="251" y="235">0</text><text class="bg" x="278" y="235">1</text><text class="g" x="304" y="235">0</text><text class="g" x="331" y="235">1</text><text class="bg" x="358" y="235">0</text><text class="bg" x="385" y="235">1</text><text class="bg" x="411" y="235">0</text><text class="bg" x="438" y="235">1</text><text class="bg" x="465" y="235">0</text><text class="bg" x="492" y="235">1</text><text class="bg" x="519" y="235">0</text>
    <!-- Row 8: G crossbar -->
    <text class="bg" x="63" y="263">0</text><text class="bg" x="90" y="263">1</text><text class="bg" x="117" y="263">0</text><text class="t" x="144" y="263">1</text><text class="t" x="170" y="263">0</text><text class="t" x="197" y="263">1</text><text class="bg" x="224" y="263">0</text><text class="bg" x="251" y="263">1</text><text class="bg" x="278" y="263">0</text><text class="g" x="304" y="263">1</text><text class="g" x="331" y="263">0</text><text class="bg" x="358" y="263">1</text><text class="bg" x="385" y="263">0</text><text class="g" x="411" y="263">1</text><text class="g" x="438" y="263">0</text><text class="g" x="465" y="263">1</text><text class="g" x="492" y="263">0</text><text class="bg" x="519" y="263">1</text>
    <!-- Row 9 -->
    <text class="bg" x="63" y="290">1</text><text class="bg" x="90" y="290">0</text><text class="bg" x="117" y="290">1</text><text class="t" x="144" y="290">0</text><text class="t" x="170" y="290">1</text><text class="t" x="197" y="290">0</text><text class="bg" x="224" y="290">1</text><text class="bg" x="251" y="290">0</text><text class="bg" x="278" y="290">1</text><text class="g" x="304" y="290">0</text><text class="g" x="331" y="290">1</text><text class="bg" x="358" y="290">0</text><text class="bg" x="385" y="290">1</text><text class="bg" x="411" y="290">0</text><text class="bg" x="438" y="290">1</text><text class="g" x="465" y="290">0</text><text class="g" x="492" y="290">1</text><text class="bg" x="519" y="290">0</text>
    <!-- Row 10 -->
    <text class="bg" x="63" y="318">0</text><text class="bg" x="90" y="318">1</text><text class="bg" x="117" y="318">0</text><text class="t" x="144" y="318">1</text><text class="t" x="170" y="318">0</text><text class="t" x="197" y="318">1</text><text class="bg" x="224" y="318">0</text><text class="bg" x="251" y="318">1</text><text class="bg" x="278" y="318">0</text><text class="g" x="304" y="318">1</text><text class="g" x="331" y="318">0</text><text class="bg" x="358" y="318">1</text><text class="bg" x="385" y="318">0</text><text class="bg" x="411" y="318">1</text><text class="bg" x="438" y="318">0</text><text class="g" x="465" y="318">1</text><text class="g" x="492" y="318">0</text><text class="bg" x="519" y="318">1</text>
    <!-- Row 11 -->
    <text class="bg" x="63" y="345">1</text><text class="bg" x="90" y="345">0</text><text class="bg" x="117" y="345">1</text><text class="t" x="144" y="345">0</text><text class="t" x="170" y="345">1</text><text class="t" x="197" y="345">0</text><text class="bg" x="224" y="345">1</text><text class="bg" x="251" y="345">0</text><text class="bg" x="278" y="345">1</text><text class="bg" x="304" y="345">0</text><text class="g" x="331" y="345">1</text><text class="bg" x="358" y="345">0</text><text class="bg" x="385" y="345">1</text><text class="bg" x="411" y="345">0</text><text class="bg" x="438" y="345">1</text><text class="g" x="465" y="345">0</text><text class="g" x="492" y="345">1</text><text class="bg" x="519" y="345">0</text>
    <!-- Row 12 -->
    <text class="bg" x="63" y="372">0</text><text class="bg" x="90" y="372">1</text><text class="bg" x="117" y="372">0</text><text class="t" x="144" y="372">1</text><text class="t" x="170" y="372">0</text><text class="t" x="197" y="372">1</text><text class="bg" x="224" y="372">0</text><text class="bg" x="251" y="372">1</text><text class="bg" x="278" y="372">0</text><text class="bg" x="304" y="372">1</text><text class="g" x="331" y="372">0</text><text class="g" x="358" y="372">1</text><text class="bg" x="385" y="372">0</text><text class="bg" x="411" y="372">1</text><text class="bg" x="438" y="372">0</text><text class="g" x="465" y="372">1</text><text class="bg" x="492" y="372">0</text><text class="bg" x="519" y="372">1</text>
    <!-- Row 13 -->
    <text class="bg" x="63" y="400">1</text><text class="bg" x="90" y="400">0</text><text class="bg" x="117" y="400">1</text><text class="t" x="144" y="400">0</text><text class="t" x="170" y="400">1</text><text class="t" x="197" y="400">0</text><text class="bg" x="224" y="400">1</text><text class="bg" x="251" y="400">0</text><text class="bg" x="278" y="400">1</text><text class="bg" x="304" y="400">0</text><text class="bg" x="331" y="400">1</text><text class="g" x="358" y="400">0</text><text class="g" x="385" y="400">1</text><text class="g" x="411" y="400">0</text><text class="g" x="438" y="400">1</text><text class="bg" x="465" y="400">0</text><text class="bg" x="492" y="400">1</text><text class="bg" x="519" y="400">0</text>
    <!-- Row 14 -->
    <text class="bg" x="63" y="427">0</text><text class="bg" x="90" y="427">1</text><text class="bg" x="117" y="427">0</text><text class="bg" x="144" y="427">1</text><text class="bg" x="170" y="427">0</text><text class="bg" x="197" y="427">1</text><text class="bg" x="224" y="427">0</text><text class="bg" x="251" y="427">1</text><text class="bg" x="278" y="427">0</text><text class="bg" x="304" y="427">1</text><text class="bg" x="331" y="427">0</text><text class="bg" x="358" y="427">1</text><text class="g" x="385" y="427">0</text><text class="g" x="411" y="427">1</text><text class="g" x="438" y="427">0</text><text class="bg" x="465" y="427">1</text><text class="bg" x="492" y="427">0</text><text class="bg" x="519" y="427">1</text>
    <!-- Row 15 -->
    <text class="bg" x="63" y="454">1</text><text class="bg" x="90" y="454">0</text><text class="bg" x="117" y="454">1</text><text class="bg" x="144" y="454">0</text><text class="bg" x="170" y="454">1</text><text class="bg" x="197" y="454">0</text><text class="bg" x="224" y="454">1</text><text class="bg" x="251" y="454">0</text><text class="bg" x="278" y="454">1</text><text class="bg" x="304" y="454">0</text><text class="bg" x="331" y="454">1</text><text class="bg" x="358" y="454">0</text><text class="bg" x="385" y="454">1</text><text class="bg" x="411" y="454">0</text><text class="bg" x="438" y="454">1</text><text class="bg" x="465" y="454">0</text><text class="bg" x="492" y="454">1</text><text class="bg" x="519" y="454">0</text>
  </g>
</svg>
